<?xml version="1.0" encoding="UTF-8"?>
<svg width="720" height="460" xmlns="http://www.w3.org/2000/svg">
  <style>
    .name { font-weight: bold; font-family: sans-serif; font-size: 14px; }
    .message { font-family: sans-serif; font-size: 14px; }
    .button-text { font-family: sans-serif; font-size: 13px; fill: black; }
    .box { fill: #f9f9f9; stroke: #ccc; }
    .button { fill: #eee; stroke: #aaa; rx: 4; }
  </style>

  <defs>
    <!-- Looping trigger -->
    <rect visibility="hidden">
      <animate id="restart" attributeName="visibility" from="hidden" to="hidden" begin="0;restart.end" dur="47s"/>
    </rect>

    <!-- 🧑 User Avatar -->
    <symbol id="avatar-user" viewBox="0 0 70 80">
      <style>
        .outer { fill: #d8b7f2; }
        .inner { fill: #a277d4; }
      </style>
      <rect x="22" y="14" width="17" height="7" class="outer"/>
      <rect x="23" y="15" width="15" height="5" class="inner"/>
      <rect x="22" y="36" width="17" height="7" class="outer"/>
      <rect x="23" y="37" width="15" height="5" class="inner"/>
      <rect x="16" y="20" width="7" height="17" class="outer"/>
      <rect x="17" y="21" width="5" height="15" class="inner"/>
      <rect x="38" y="20" width="7" height="17" class="outer"/>
      <rect x="39" y="21" width="5" height="15" class="inner"/>
      <circle cx="30.5" cy="28.5" r="17.8" fill="none" stroke="#ccc" stroke-width="2" />
    </symbol>

    <!-- 🤖 Copilot Avatar -->
    <symbol id="avatar-copilot" viewBox="0 0 763 763">
      <circle cx="381" cy="381" r="356" stroke="grey" stroke-width="50" fill="none" />
<path d="M309.33000000000004 393.143c0-11.497 9.32-20.818 20.818-20.818 11.498 0 20.819 9.321 20.819 20.818v38.373c0 11.497-9.321 20.818-20.819 20.818-11.497 0-20.818-9.32-20.818-20.818v-38.373zM436.807 372.325c-11.477 0-20.798 9.321-20.798 20.818v38.373c0 11.497 9.32 20.818 20.798 20.818 11.497 0 20.818-9.32 20.818-20.818v-38.373c0-11.497-9.32-20.818-20.818-20.818z" fill-rule="nonzero"/>
<path d="M640.002 373.39300000000003v57.384c-.02 7.411-3.696 14.638-9.67 19.011C559.767 501.444 472.695 543.0 384.0 543.0c-98.138 0-196.379-56.542-246.33-93.21-5.975-4.374-9.65-11.6-9.671-19.012v-57.384a35.347 35.347 0 016.857-20.922l15.583-21.085c8.336-11.312 20.757-14.31 33.98-14.31 4.988-56.953 16.794-97.604 45.024-127.354C283.19399999999996 132.77 354.56 127.0 384.0 127.0c29.441 0 100.807 5.77 154.557 62.722 28.19 29.75 40.036 70.401 45.025 127.354 13.263 0 25.602 2.936 33.958 14.31l15.583 21.127c4.476 6.077 6.878 13.345 6.878 20.88zm-97.666 -26.075c-.677-13.058-11.292-18.19-22.338-21.824-11.64 7.309-25.848 10.183-39.46 10.183-14.454 0-41.432-3.47-63.872-25.869-5.667-5.625-9.527-14.454-12.155-24.247a212.902 212.902 0 00-20.469-1.088c-6.098 0-13.099.349-20.551 1.088-2.628 9.793-6.509 18.622-12.155 24.247-22.4 22.4-49.418 25.87-63.872 25.87-13.612 0-27.86-2.855-39.501-10.184-11.005 3.613-21.558 8.828-22.277 21.824-1.17 24.555-1.272 49.11-1.375 73.645-.041 12.318-.082 24.658-.288 36.976.062 7.166 4.374 13.818 10.882 16.774 52.97 24.124 103.045 36.278 149.137 36.278 46.01 0 96.085-12.154 149.014-36.278 6.508-2.956 10.84-9.608 10.881-16.774.637-36.832.124-73.809-1.642-110.62h.041zM235.52100000000002 295.97c8.643 8.623 24.966 14.392 42.56 14.392 13.448 0 39.03-2.874 60.156-24.329 9.28-8.951 15.05-31.35 14.413-54.079-.657-18.231-5.769-33.28-13.448-39.665-8.315-7.371-27.203-10.574-48.33-8.644-22.399 2.238-41.267 9.588-50.875 19.833-20.798 22.728-16.323 80.317-4.476 92.492zm130.556-56.008c.637 3.51.965 7.35 1.273 11.517 0 2.875 0 5.77-.308 8.952 6.406-.636 11.847-.636 16.959-.636s10.553 0 16.959.636c-.329-3.182-.329-6.077-.329-8.952.329-4.167.657-8.007 1.294-11.517-6.735-.637-12.812-.965-17.924-.965s-11.21.328-17.924.965zm49.275-8.008c-.637 22.728 5.133 45.128 14.413 54.08 21.105 21.454 46.708 24.328 60.155 24.328 17.596 0 33.918-5.769 42.561-14.392 11.847-12.175 16.322-69.764-4.476-92.492-9.608-10.245-28.476-17.595-50.875-19.833-21.127-1.93-40.015 1.273-48.33 8.644-7.679 6.385-12.791 21.434-13.448 39.665z"/>
    </symbol>
    <symbol id="avatar-copilot1" viewBox="0 0 1018 1018">
    <circle cx="509" cy="509" r="484" stroke="grey" stroke-width="50" fill="none" />
<path d="M435.33000000000004 520.143c0-11.497 9.32-20.818 20.818-20.818 11.498 0 20.819 9.321 20.819 20.818v38.373c0 11.497-9.321 20.818-20.819 20.818-11.497 0-20.818-9.32-20.818-20.818v-38.373zM562.807 499.325c-11.477 0-20.798 9.321-20.798 20.818v38.373c0 11.497 9.32 20.818 20.798 20.818 11.497 0 20.818-9.32 20.818-20.818v-38.373c0-11.497-9.32-20.818-20.818-20.818z" fill-rule="nonzero"/>
<path d="M766.002 500.39300000000003v57.384c-.02 7.411-3.696 14.638-9.67 19.011C685.767 628.444 598.6949999999999 670.0 510.0 670.0c-98.138 0-196.379-56.542-246.33-93.21-5.975-4.374-9.65-11.6-9.671-19.012v-57.384a35.347 35.347 0 016.857-20.922l15.583-21.085c8.336-11.312 20.757-14.31 33.98-14.31 4.988-56.953 16.794-97.604 45.024-127.354C409.19399999999996 259.77 480.56 254.0 510.0 254.0c29.441 0 100.807 5.77 154.557 62.722 28.19 29.75 40.036 70.401 45.025 127.354 13.263 0 25.602 2.936 33.958 14.31l15.583 21.127c4.476 6.077 6.878 13.345 6.878 20.88zm-97.666 -26.075c-.677-13.058-11.292-18.19-22.338-21.824-11.64 7.309-25.848 10.183-39.46 10.183-14.454 0-41.432-3.47-63.872-25.869-5.667-5.625-9.527-14.454-12.155-24.247a212.902 212.902 0 00-20.469-1.088c-6.098 0-13.099.349-20.551 1.088-2.628 9.793-6.509 18.622-12.155 24.247-22.4 22.4-49.418 25.87-63.872 25.87-13.612 0-27.86-2.855-39.501-10.184-11.005 3.613-21.558 8.828-22.277 21.824-1.17 24.555-1.272 49.11-1.375 73.645-.041 12.318-.082 24.658-.288 36.976.062 7.166 4.374 13.818 10.882 16.774 52.97 24.124 103.045 36.278 149.137 36.278 46.01 0 96.085-12.154 149.014-36.278 6.508-2.956 10.84-9.608 10.881-16.774.637-36.832.124-73.809-1.642-110.62h.041zM361.521 422.97c8.643 8.623 24.966 14.392 42.56 14.392 13.448 0 39.03-2.874 60.156-24.329 9.28-8.951 15.05-31.35 14.413-54.079-.657-18.231-5.769-33.28-13.448-39.665-8.315-7.371-27.203-10.574-48.33-8.644-22.399 2.238-41.267 9.588-50.875 19.833-20.798 22.728-16.323 80.317-4.476 92.492zm130.556-56.008c.637 3.51.965 7.35 1.273 11.517 0 2.875 0 5.77-.308 8.952 6.406-.636 11.847-.636 16.959-.636s10.553 0 16.959.636c-.329-3.182-.329-6.077-.329-8.952.329-4.167.657-8.007 1.294-11.517-6.735-.637-12.812-.965-17.924-.965s-11.21.328-17.924.965zm49.275-8.008c-.637 22.728 5.133 45.128 14.413 54.08 21.105 21.454 46.708 24.328 60.155 24.328 17.596 0 33.918-5.769 42.561-14.392 11.847-12.175 16.322-69.764-4.476-92.492-9.608-10.245-28.476-17.595-50.875-19.833-21.127-1.93-40.015 1.273-48.33 8.644-7.679 6.385-12.791 21.434-13.448 39.665z"/>
     </symbol>
  </defs>

  <!-- === Page 1 === -->
  <use href="#avatar-copilot" x="10" y="-201" width="20" visibility="hidden">
    <set attributeName="visibility" to="visible" begin="restart.begin+0s"/>
    <set attributeName="visibility" to="hidden" begin="restart.begin+11s"/>
  </use>
  <text x="40" y="34" class="name" visibility="hidden">
    GitHub Copilot
    <set attributeName="visibility" to="visible" begin="restart.begin+0s"/>
    <set attributeName="visibility" to="hidden" begin="restart.begin+11s"/>
  </text>
  <text x="40" y="54" class="message" visibility="hidden">
    Hello! How can I assist you with your project today?
    <set attributeName="visibility" to="visible" begin="restart.begin+0.5s"/>
    <set attributeName="visibility" to="hidden" begin="restart.begin+11s"/>
  </text>

  <use href="#avatar-user" x="2" y="-133" width="40" visibility="hidden">
    <set attributeName="visibility" to="visible" begin="restart.begin+2s"/>
    <set attributeName="visibility" to="hidden" begin="restart.begin+11s"/>
  </use>
  <text x="40" y="94" class="name" visibility="hidden">
    raghuraman1
    <set attributeName="visibility" to="visible" begin="restart.begin+2s"/>
    <set attributeName="visibility" to="hidden" begin="restart.begin+11s"/>
  </text>
  <text x="40" y="114" class="message" visibility="hidden">
    What are the items available under Brand Z Sports Store?
    <set attributeName="visibility" to="visible" begin="restart.begin+2.5s"/>
    <set attributeName="visibility" to="hidden" begin="restart.begin+11s"/>
  </text>

  <use href="#avatar-copilot" x="10" y="-91" width="20" visibility="hidden">
    <set attributeName="visibility" to="visible" begin="restart.begin+4s"/>
    <set attributeName="visibility" to="hidden" begin="restart.begin+11s"/>
  </use>
  <text x="40" y="144" class="name" visibility="hidden">
    GitHub Copilot
    <set attributeName="visibility" to="visible" begin="restart.begin+4s"/>
    <set attributeName="visibility" to="hidden" begin="restart.begin+11s"/>
  </text>
  <g visibility="hidden">
    <set attributeName="visibility" to="visible" begin="restart.begin+4s"/>
    <set attributeName="visibility" to="hidden" begin="restart.begin+7s"/>
    <rect x="20" y="160" width="660" height="100" class="box"/>
    <text x="30" y="180" class="name">Confirm MCP Tool: get_items - brand-z-sports-store (MCP Server)</text>
    <text x="30" y="200" class="message">
      Do you want to allow the external MCP tool "brand-z-sports-store/get_items" to run?
    </text>
    <rect id="continue-btn" x="30" y="220" width="80" height="25" class="button">
      <animate attributeName="fill" values="#eee;#ccc;#eee"
               begin="restart.begin+6.5s" dur="0.3s" repeatCount="1"/>
    </rect>
    <rect x="120" y="220" width="80" height="25" class="button"/>
    <text x="50" y="237" class="button-text">Continue</text>
    <text x="145" y="237" class="button-text">Cancel</text>
  </g>

  <polygon id="cursor" points="0,0 8,4 2,10" fill="black"
           visibility="hidden" opacity="1"
           transform="translate(10,180)">
    <set attributeName="visibility" to="visible" begin="restart.begin+5.5s"/>
    <animateTransform attributeName="transform" type="translate"
                      from="10,180" to="50,230"
                      begin="restart.begin+5.5s" dur="1s" fill="freeze"/>
    <animateTransform attributeName="transform" type="scale"
                      values="1;0.85;1"
                      begin="restart.begin+6.5s" dur="0.2s"
                      additive="sum" fill="freeze"/>
    <animate attributeName="opacity" values="1;0" begin="restart.begin+6.7s" dur="0.3s" fill="freeze"/>
    <set attributeName="visibility" to="hidden" begin="restart.begin+7s"/>
  </polygon>

  <g visibility="hidden">
    <set attributeName="visibility" to="visible" begin="restart.begin+7s"/>
    <set attributeName="visibility" to="hidden" begin="restart.begin+11s"/>
    <rect x="20" y="160" width="660" height="30" fill="#eee" stroke="#ccc"/>
    <text x="30" y="180" class="message">
      ✅ Running MCP tool: get_items - brand-z-sports-store (MCP Server)
    </text>
  </g>

  <text x="40" y="230" class="message" visibility="hidden">
    <set attributeName="visibility" to="visible" begin="restart.begin+9s"/>
    <set attributeName="visibility" to="hidden" begin="restart.begin+11s"/>
    The items available under Brand Z Sports Store are: Tennis ball, Tennis racquet,
  </text>
  <text x="40" y="250" class="message" visibility="hidden">
    <set attributeName="visibility" to="visible" begin="restart.begin+9.5s"/>
    <set attributeName="visibility" to="hidden" begin="restart.begin+11s"/>
    Football, and Tennis net. Let me know if you need more help!
  </text>

  <!-- You can continue the rest of the animation (Page 2, 3) using the same approach:
       - Replace all `begin="Xs"` with `begin="restart.begin+Xs"`
       - Add `<set>` and `<animate>` relative to `restart.begin`
  -->
</svg>
