<svg width="700" height="700" viewBox="0 0 700 700" xmlns="http://www.w3.org/2000/svg" font-family="monospace">

  <!-- 🟦 Main Shape -->
  <path 
    d="
      M 50 100              
      A 50 50 0 0 1 150 100
      L 150 150            
      L 50 150            
      Z                   
    "
    fill="lightblue"       
    stroke="black"         
  />

  <!-- 🔶 Yellow Annotations -->

  <!-- Box: M 50 100 (Shifted left) -->
  <rect x="-20" y="60" width="130" height="20" fill="yellow" stroke="black"/>
  <text x="-45" y="75" fill="black" font-size="12">Move to (50,100)</text>

  <rect x="100" y="40" width="240" height="35" fill="yellow" stroke="black"/>
  <text x="105" y="55" fill="black" font-size="12">Arc: rx=50 ry=50 large-arc=0 sweep=1</text>
  <text x="105" y="70" fill="black" font-size="12">Draws top half from (50,100) → (150,100)</text>

  <rect x="160" y="155" width="130" height="20" fill="yellow" stroke="black"/>
  <text x="165" y="170" fill="black" font-size="12">Line to (150,150)</text>

  <rect x="10" y="155" width="120" height="20" fill="yellow" stroke="black"/>
  <text x="15" y="170" fill="black" font-size="12">Line to (50,150)</text>

  <rect x="70" y="180" width="180" height="20" fill="yellow" stroke="black"/>
  <text x="75" y="195" fill="black" font-size="12">Z: Close path back to start</text>

  <rect x="280" y="120" width="130" height="20" fill="yellow" stroke="black"/>
  <text x="285" y="135" fill="black" font-size="12">Fill = lightblue</text>

  <rect x="280" y="145" width="130" height="20" fill="yellow" stroke="black"/>
  <text x="285" y="160" fill="black" font-size="12">Stroke = black</text>

  <rect x="270" y="10" width="230" height="20" fill="yellow" stroke="black"/>
  <text x="275" y="25" fill="black" font-size="12">SVG coordinate system: 0 0 700 700</text>


  <!-- 🧾 White Box Containing the Source Code Below -->
  <rect x="10" y="230" width="680" height="450" fill="white" stroke="black"/>

  <text x="20" y="250" font-size="12" fill="black">&lt;svg width="200" height="200" viewBox="0 0 200 200" xmlns="http://www.w3.org/2000/svg"&gt;</text>
  <text x="20" y="270" font-size="12" fill="black">    &lt;!-- This SVG defines a coordinate space of 200x200 units --&gt;</text>
  <text x="20" y="290" font-size="12" fill="black">    &lt;path</text>
  <text x="20" y="310" font-size="12" fill="black">        d="</text>
  <text x="20" y="330" font-size="12" fill="black">            M 50 100</text>
  <text x="20" y="350" font-size="12" fill="black">            A 50 50 0 0 1 150 100</text>
  <text x="20" y="370" font-size="12" fill="black">            L 150 150</text>
  <text x="20" y="390" font-size="12" fill="black">            L 50 150</text>
  <text x="20" y="410" font-size="12" fill="black">            Z</text>
  <text x="20" y="430" font-size="12" fill="black">        "</text>
  <text x="20" y="450" font-size="12" fill="black">        fill="lightblue"</text>
  <text x="20" y="470" font-size="12" fill="black">        stroke="black"</text>
  <text x="20" y="490" font-size="12" fill="black">    /&gt;</text>
  <text x="20" y="510" font-size="12" fill="black">&lt;/svg&gt;</text>

</svg>
