<?xml version="1.0" encoding="UTF-8" standalone="no"?>
<svg xmlns="http://www.w3.org/2000/svg" clip-rule="evenodd" fill-rule="evenodd" height="460.0" stroke-linejoin="round" stroke-miterlimit="2" viewBox="0 0 720.0 460.0" width="720.0">
  <rect visibility="hidden">
    <animate attributeName="visibility" begin="0;restart.end" dur="40.0s" from="hidden" id="restart" to="hidden"/>
  </rect>
  	        
  <style>
    .name { font-weight: bold; font-family: sans-serif; font-size: 14px; }
    .message { font-family: sans-serif; font-size: 14px; }
    .button-text { font-family: sans-serif; font-size: 13px; fill: black; }
    .box { fill: #f9f9f9; stroke: #ccc; }
    .button { fill: #eee; stroke: #aaa; rx: 4; }
  </style>
    
  <defs>
        
    <symbol id="avatar-pilot" viewBox="0 0 712.0 578.5">
      
      <path d="M281.33000000000004 347.393c0-11.497 9.32-20.818 20.818-20.818 11.498 0 20.819 9.321 20.819 20.818v38.373c0 11.497-9.321 20.818-20.819 20.818-11.497 0-20.818-9.32-20.818-20.818v-38.373zM408.807 326.575c-11.477 0-20.798 9.321-20.798 20.818v38.373c0 11.497 9.32 20.818 20.798 20.818 11.497 0 20.818-9.32 20.818-20.818v-38.373c0-11.497-9.32-20.818-20.818-20.818z" fill-rule="nonzero"/>
      
      <path d="M612.002 327.64300000000003v57.384c-.02 7.411-3.696 14.638-9.67 19.011C531.767 455.694 444.695 497.25 356.0 497.25c-98.138 0-196.379-56.542-246.33-93.21-5.975-4.374-9.65-11.6-9.671-19.012v-57.384a35.347 35.347 0 016.857-20.922l15.583-21.085c8.336-11.312 20.757-14.31 33.98-14.31 4.988-56.953 16.794-97.604 45.024-127.354C255.194 87.02 326.56 81.25 356.0 81.25c29.441 0 100.807 5.77 154.557 62.722 28.19 29.75 40.036 70.401 45.025 127.354 13.263 0 25.602 2.936 33.958 14.31l15.583 21.127c4.476 6.077 6.878 13.345 6.878 20.88zm-97.666 -26.075c-.677-13.058-11.292-18.19-22.338-21.824-11.64 7.309-25.848 10.183-39.46 10.183-14.454 0-41.432-3.47-63.872-25.869-5.667-5.625-9.527-14.454-12.155-24.247a212.902 212.902 0 00-20.469-1.088c-6.098 0-13.099.349-20.551 1.088-2.628 9.793-6.509 18.622-12.155 24.247-22.4 22.4-49.418 25.87-63.872 25.87-13.612 0-27.86-2.855-39.501-10.184-11.005 3.613-21.558 8.828-22.277 21.824-1.17 24.555-1.272 49.11-1.375 73.645-.041 12.318-.082 24.658-.288 36.976.062 7.166 4.374 13.818 10.882 16.774 52.97 24.124 103.045 36.278 149.137 36.278 46.01 0 96.085-12.154 149.014-36.278 6.508-2.956 10.84-9.608 10.881-16.774.637-36.832.124-73.809-1.642-110.62h.041zM207.52100000000002 250.22c8.643 8.623 24.966 14.392 42.56 14.392 13.448 0 39.03-2.874 60.156-24.329 9.28-8.951 15.05-31.35 14.413-54.079-.657-18.231-5.769-33.28-13.448-39.665-8.315-7.371-27.203-10.574-48.33-8.644-22.399 2.238-41.267 9.588-50.875 19.833-20.798 22.728-16.323 80.317-4.476 92.492zm130.556-56.008c.637 3.51.965 7.35 1.273 11.517 0 2.875 0 5.77-.308 8.952 6.406-.636 11.847-.636 16.959-.636s10.553 0 16.959.636c-.329-3.182-.329-6.077-.329-8.952.329-4.167.657-8.007 1.294-11.517-6.735-.637-12.812-.965-17.924-.965s-11.21.328-17.924.965zm49.275-8.008c-.637 22.728 5.133 45.128 14.413 54.08 21.105 21.454 46.708 24.328 60.155 24.328 17.596 0 33.918-5.769 42.561-14.392 11.847-12.175 16.322-69.764-4.476-92.492-9.608-10.245-28.476-17.595-50.875-19.833-21.127-1.93-40.015 1.273-48.33 8.644-7.679 6.385-12.791 21.434-13.448 39.665z"/>
      
      <circle cx="356.0" cy="289.25" fill="none" r="285.25" stroke="black" stroke-width="6"/>
      
    </symbol>
    
    <symbol id="avatar-user" viewBox="0 0 44 44">
       
      <style>
    .outer { fill: #d8b7f2; }
    .inner { fill: #a277d4; }
  </style>
        
      <!-- Shifted Top horizontal -->
        
      <rect class="outer" height="7" width="17" x="13" y="7"/>
        
      <rect class="inner" height="5" width="15" x="14" y="8"/>
          
      <!-- Shifted Bottom horizontal -->
        
      <rect class="outer" height="7" width="17" x="13" y="29"/>
        
      <rect class="inner" height="5" width="15" x="14" y="30"/>
        
      <!-- Shifted Left vertical -->
        
      <rect class="outer" height="17" width="7" x="7" y="13"/>
        
      <rect class="inner" height="15" width="5" x="8" y="14"/>
         
      <!-- Shifted Right vertical -->
        
      <rect class="outer" height="17" width="7" x="29" y="13"/>
        
      <rect class="inner" height="15" width="5" x="30" y="14"/>
        
      <circle cx="22" cy="22" fill="none" r="21" stroke="#ccc" stroke-width="2"/>
      
    </symbol>
      
  </defs>
    
  <!-- starting page no 1 -->
    
  <use height="20.000000" href="#avatar-user" visibility="hidden" width="20.000000" x="10.000000" y="0.000000">
    
    <set attributeName="visibility" begin="restart.begin+2.0s" to="visible"/>
     
    <set attributeName="visibility" begin="restart.begin+19.75s" to="hidden"/>
    
  </use>
    
  <text class="name" visibility="hidden" x="35.000000" y="13.000000">
    username
    <set attributeName="visibility" begin="restart.begin+2.0s" to="visible"/>
     
    <set attributeName="visibility" begin="restart.begin+19.75s" to="hidden"/>
      
  </text>
    
  <text class="message" visibility="hidden" x="10.000000" y="38.000000">
    Hi
    <set attributeName="visibility" begin="restart.begin+2.5s" to="visible"/>
     
    <set attributeName="visibility" begin="restart.begin+19.75s" to="hidden"/>
      
  </text>
    
  <use height="20.000000" href="#avatar-pilot" visibility="hidden" width="20.000000" x="10.000000" y="58.000000">
    
    <set attributeName="visibility" begin="restart.begin+4.5s" to="visible"/>
     
    <set attributeName="visibility" begin="restart.begin+19.75s" to="hidden"/>
    
  </use>
    
  <text class="name" visibility="hidden" x="35.000000" y="71.000000">
    GitHub Copilot
    <set attributeName="visibility" begin="restart.begin+4.5s" to="visible"/>
     
    <set attributeName="visibility" begin="restart.begin+19.75s" to="hidden"/>
      
  </text>
    
  <text class="message" visibility="hidden" x="10.000000" y="96.000000">
    Hello! How can I assist you with your project today?
    <set attributeName="visibility" begin="restart.begin+5.0s" to="visible"/>
     
    <set attributeName="visibility" begin="restart.begin+19.75s" to="hidden"/>
      
  </text>
    
  <use height="20.000000" href="#avatar-user" visibility="hidden" width="20.000000" x="10.000000" y="116.000000">
    
    <set attributeName="visibility" begin="restart.begin+7.0s" to="visible"/>
     
    <set attributeName="visibility" begin="restart.begin+19.75s" to="hidden"/>
    
  </use>
    
  <text class="name" visibility="hidden" x="35.000000" y="129.000000">
    username
    <set attributeName="visibility" begin="restart.begin+7.0s" to="visible"/>
     
    <set attributeName="visibility" begin="restart.begin+19.75s" to="hidden"/>
      
  </text>
    
  <text class="message" visibility="hidden" x="10.000000" y="154.000000">
    What are the items sold by Brand Z Sports Store?
    <set attributeName="visibility" begin="restart.begin+7.5s" to="visible"/>
     
    <set attributeName="visibility" begin="restart.begin+19.75s" to="hidden"/>
      
  </text>
    
  <use height="20.000000" href="#avatar-pilot" visibility="hidden" width="20.000000" x="10.000000" y="174.000000">
    
    <set attributeName="visibility" begin="restart.begin+9.5s" to="visible"/>
     
    <set attributeName="visibility" begin="restart.begin+19.75s" to="hidden"/>
    
  </use>
    
  <text class="name" visibility="hidden" x="35.000000" y="187.000000">
    GitHub Copilot
    <set attributeName="visibility" begin="restart.begin+9.5s" to="visible"/>
     
    <set attributeName="visibility" begin="restart.begin+19.75s" to="hidden"/>
      
  </text>
  
  <g visibility="hidden">
    
    <set attributeName="visibility" begin="restart.begin+12.0s" to="visible"/>
    
    <set attributeName="visibility" begin="restart.begin+15.0s" to="hidden"/>
      
    <rect class="box" height="100.000000" width="660.000000" x="10.000000" y="212.000000"/>
      
    <text class="name" x="20.000000" y="232.000000">
Confirm MCP Tool: get_items - brand-z-sports-store (MCP Server)  </text>
      
    <text class="message" x="20.000000" y="252.000000">
Do you want to allow the external MCP tool "brand-z-sports-store/get_items" to run?  </text>
      
    <rect class="button" height="25.000000" width="80.000000" x="20.000000" y="272.000000">
      
      <animate attributeName="fill" begin="restart.begin+14.5s" dur="0.3s" repeatCount="1" values="#eee;#ccc;#eee"/>
      
    </rect>
      
    <rect class="button" height="25.000000" width="80.000000" x="110.000000" y="272.000000"/>
      
    <text class="button-text" x="40.000000" y="285.000000">
Continue  </text>
      
    <text class="button-text" x="135.000000" y="285.000000">
Cancel  </text>
    
  </g>
  
  <g visibility="hidden">
    
    <set attributeName="visibility" begin="restart.begin+15.0s" to="visible"/>
    
    <set attributeName="visibility" begin="restart.begin+19.75s" to="hidden"/>
      
    <rect fill="#eee" height="30.000000" stroke="#ccc" width="660.000000" x="10.000000" y="212.000000"/>
      
    <text class="message" x="20.000000" y="232.000000">
✅ Running MCP tool: get_items - brand-z-sports-store (MCP Server)  </text>
    
  </g>
    
  <text class="message" visibility="hidden" x="10.000000" y="268.000000">
    The items available under Brand Z Sports Store are: Tennis ball, Tennis racquet, Football, and Tennis net.
    <set attributeName="visibility" begin="restart.begin+15.5s" to="visible"/>
     
    <set attributeName="visibility" begin="restart.begin+19.75s" to="hidden"/>
      
  </text>
    
  <text class="message" visibility="hidden" x="10.000000" y="283.000000">
    Let me know if you need more help!
    <set attributeName="visibility" begin="restart.begin+15.75s" to="visible"/>
     
    <set attributeName="visibility" begin="restart.begin+19.75s" to="hidden"/>
      
  </text>
    
  <!-- ending page no 1 -->
    
  <!-- starting page no 2 -->
    
  <use height="20.000000" href="#avatar-user" visibility="hidden" width="20.000000" x="10.000000" y="0.000000">
    
    <set attributeName="visibility" begin="restart.begin+19.75s" to="visible"/>
     
    <set attributeName="visibility" begin="restart.begin+38.0s" to="hidden"/>
    
  </use>
    
  <text class="name" visibility="hidden" x="35.000000" y="13.000000">
    username
    <set attributeName="visibility" begin="restart.begin+19.75s" to="visible"/>
     
    <set attributeName="visibility" begin="restart.begin+38.0s" to="hidden"/>
      
  </text>
    
  <text class="message" visibility="hidden" x="10.000000" y="38.000000">
    Show me in html details of the tennis ball and its picture
    <set attributeName="visibility" begin="restart.begin+20.25s" to="visible"/>
     
    <set attributeName="visibility" begin="restart.begin+38.0s" to="hidden"/>
      
  </text>
    
  <use height="20.000000" href="#avatar-pilot" visibility="hidden" width="20.000000" x="10.000000" y="58.000000">
    
    <set attributeName="visibility" begin="restart.begin+22.25s" to="visible"/>
     
    <set attributeName="visibility" begin="restart.begin+38.0s" to="hidden"/>
    
  </use>
    
  <text class="name" visibility="hidden" x="35.000000" y="71.000000">
    GitHub Copilot
    <set attributeName="visibility" begin="restart.begin+22.25s" to="visible"/>
     
    <set attributeName="visibility" begin="restart.begin+38.0s" to="hidden"/>
      
  </text>
  
  <g visibility="hidden">
    
    <set attributeName="visibility" begin="restart.begin+24.75s" to="visible"/>
    
    <set attributeName="visibility" begin="restart.begin+27.75s" to="hidden"/>
      
    <rect class="box" height="100.000000" width="660.000000" x="10.000000" y="96.000000"/>
      
    <text class="name" x="20.000000" y="116.000000">
Confirm MCP Tool: get_details_of_item - brand-z-sports-store (MCP Server)  </text>
      
    <text class="message" x="20.000000" y="136.000000">
Do you want to allow the external MCP tool "brand-z-sports-store/get_details_of_item" to run?  </text>
      
    <rect class="button" height="25.000000" width="80.000000" x="20.000000" y="156.000000">
      
      <animate attributeName="fill" begin="restart.begin+27.25s" dur="0.3s" repeatCount="1" values="#eee;#ccc;#eee"/>
      
    </rect>
      
    <rect class="button" height="25.000000" width="80.000000" x="110.000000" y="156.000000"/>
      
    <text class="button-text" x="40.000000" y="169.000000">
Continue  </text>
      
    <text class="button-text" x="135.000000" y="169.000000">
Cancel  </text>
    
  </g>
  
  <g visibility="hidden">
    
    <set attributeName="visibility" begin="restart.begin+27.75s" to="visible"/>
    
    <set attributeName="visibility" begin="restart.begin+38.0s" to="hidden"/>
      
    <rect fill="#eee" height="30.000000" stroke="#ccc" width="660.000000" x="10.000000" y="96.000000"/>
      
    <text class="message" x="20.000000" y="116.000000">
✅ Running MCP tool: get_details_of_item - brand-z-sports-store (MCP Server)  </text>
    
  </g>
    
  <text class="message" visibility="hidden" x="10.000000" y="152.000000">
    &lt;div&gt;
    <set attributeName="visibility" begin="restart.begin+28.25s" to="visible"/>
     
    <set attributeName="visibility" begin="restart.begin+38.0s" to="hidden"/>
      
  </text>
    
  <text class="message" visibility="hidden" x="10.000000" y="167.000000">
      &lt;h2&gt;Tennis Ball&lt;/h2&gt;
    <set attributeName="visibility" begin="restart.begin+28.5s" to="visible"/>
     
    <set attributeName="visibility" begin="restart.begin+38.0s" to="hidden"/>
      
  </text>
    
  <text class="message" visibility="hidden" x="10.000000" y="182.000000">
      &lt;p&gt;Type: Standard Tennis ball&lt;/p&gt;
    <set attributeName="visibility" begin="restart.begin+28.75s" to="visible"/>
     
    <set attributeName="visibility" begin="restart.begin+38.0s" to="hidden"/>
      
  </text>
    
  <text class="message" visibility="hidden" x="10.000000" y="197.000000">
      &lt;img src="http://localhost:8080/images/tennis_ball.png" alt="Tennis Ball" style="width:200px;"/&gt;
    <set attributeName="visibility" begin="restart.begin+29.0s" to="visible"/>
     
    <set attributeName="visibility" begin="restart.begin+38.0s" to="hidden"/>
      
  </text>
    
  <text class="message" visibility="hidden" x="10.000000" y="212.000000">
    &lt;/div&gt;
    <set attributeName="visibility" begin="restart.begin+29.25s" to="visible"/>
     
    <set attributeName="visibility" begin="restart.begin+38.0s" to="hidden"/>
      
  </text>
    
  <text class="message" visibility="hidden" x="10.000000" y="227.000000">
    This displays the tennis ball's type and its image. Let me know if you need more details or a different format!
    <set attributeName="visibility" begin="restart.begin+29.5s" to="visible"/>
     
    <set attributeName="visibility" begin="restart.begin+38.0s" to="hidden"/>
      
  </text>
    
  <use height="20.000000" href="#avatar-user" visibility="hidden" width="20.000000" x="10.000000" y="247.000000">
    
    <set attributeName="visibility" begin="restart.begin+31.5s" to="visible"/>
     
    <set attributeName="visibility" begin="restart.begin+38.0s" to="hidden"/>
    
  </use>
    
  <text class="name" visibility="hidden" x="35.000000" y="260.000000">
    username
    <set attributeName="visibility" begin="restart.begin+31.5s" to="visible"/>
     
    <set attributeName="visibility" begin="restart.begin+38.0s" to="hidden"/>
      
  </text>
    
  <text class="message" visibility="hidden" x="10.000000" y="285.000000">
    show me same in markdown
    <set attributeName="visibility" begin="restart.begin+32.0s" to="visible"/>
     
    <set attributeName="visibility" begin="restart.begin+38.0s" to="hidden"/>
      
  </text>
    
  <use height="20.000000" href="#avatar-pilot" visibility="hidden" width="20.000000" x="10.000000" y="305.000000">
    
    <set attributeName="visibility" begin="restart.begin+34.0s" to="visible"/>
     
    <set attributeName="visibility" begin="restart.begin+38.0s" to="hidden"/>
    
  </use>
    
  <text class="name" visibility="hidden" x="35.000000" y="318.000000">
    GitHub Copilot
    <set attributeName="visibility" begin="restart.begin+34.0s" to="visible"/>
     
    <set attributeName="visibility" begin="restart.begin+38.0s" to="hidden"/>
      
  </text>
    
  <text class="message" visibility="hidden" x="10.000000" y="343.000000">
    Here is the tennis ball information in Markdown format:
    <set attributeName="visibility" begin="restart.begin+34.5s" to="visible"/>
     
    <set attributeName="visibility" begin="restart.begin+38.0s" to="hidden"/>
      
  </text>
    
  <text class="message" visibility="hidden" x="10.000000" y="358.000000">
    ## Tennis Ball
    <set attributeName="visibility" begin="restart.begin+34.75s" to="visible"/>
     
    <set attributeName="visibility" begin="restart.begin+38.0s" to="hidden"/>
      
  </text>
    
  <text class="message" visibility="hidden" x="10.000000" y="373.000000">
    - Type: Standard Tennis ball
    <set attributeName="visibility" begin="restart.begin+35.0s" to="visible"/>
     
    <set attributeName="visibility" begin="restart.begin+38.0s" to="hidden"/>
      
  </text>
    
  <text class="message" visibility="hidden" x="10.000000" y="388.000000">
    ![Tennis Ball](http://localhost:8080/images/tennis_ball.png)
    <set attributeName="visibility" begin="restart.begin+35.25s" to="visible"/>
     
    <set attributeName="visibility" begin="restart.begin+38.0s" to="hidden"/>
      
  </text>
    
  <text class="message" visibility="hidden" x="10.000000" y="403.000000">
    
    <set attributeName="visibility" begin="restart.begin+35.5s" to="visible"/>
     
    <set attributeName="visibility" begin="restart.begin+38.0s" to="hidden"/>
      
  </text>
    
  <text class="message" visibility="hidden" x="10.000000" y="418.000000">
    You can use this Markdown to display the tennis ball details and its image.
    <set attributeName="visibility" begin="restart.begin+35.75s" to="visible"/>
     
    <set attributeName="visibility" begin="restart.begin+38.0s" to="hidden"/>
      
  </text>
    
  <text class="message" visibility="hidden" x="10.000000" y="433.000000">
    Let me know if you need it in a specific file!
    <set attributeName="visibility" begin="restart.begin+36.0s" to="visible"/>
     
    <set attributeName="visibility" begin="restart.begin+38.0s" to="hidden"/>
      
  </text>
    
  <!-- ending page no 2 -->
  
  <image height="100" href="md-tennisball-src.png" width="100" x="0" y="0"/>
  
</svg>
