<?xml version="1.0" encoding="UTF-8" standalone="no"?>
<svg xmlns="http://www.w3.org/2000/svg" clip-rule="evenodd" fill-rule="evenodd" height="460.0" stroke-linejoin="round" stroke-miterlimit="2" viewBox="0 0 720.0 460.0" width="720.0">
  <rect visibility="hidden">
    <animate attributeName="visibility" begin="0;restart.end" dur="14.5s" from="hidden" id="restart" to="hidden"/>
  </rect>
  	        
  <style>
    .name { font-weight: bold; font-family: sans-serif; font-size: 14px; }
    .message { font-family: sans-serif; font-size: 14px; }
    .button-text { font-family: sans-serif; font-size: 13px; fill: black; }
    .box { fill: #f9f9f9; stroke: #ccc; }
    .button { fill: #eee; stroke: #aaa; rx: 4; }
  </style>
    
  <defs>
        
    <symbol id="avatar-pilot" viewBox="0 0 712.0 578.5">
      
      <path d="M281.33000000000004 347.393c0-11.497 9.32-20.818 20.818-20.818 11.498 0 20.819 9.321 20.819 20.818v38.373c0 11.497-9.321 20.818-20.819 20.818-11.497 0-20.818-9.32-20.818-20.818v-38.373zM408.807 326.575c-11.477 0-20.798 9.321-20.798 20.818v38.373c0 11.497 9.32 20.818 20.798 20.818 11.497 0 20.818-9.32 20.818-20.818v-38.373c0-11.497-9.32-20.818-20.818-20.818z" fill-rule="nonzero"/>
      
      <path d="M612.002 327.64300000000003v57.384c-.02 7.411-3.696 14.638-9.67 19.011C531.767 455.694 444.695 497.25 356.0 497.25c-98.138 0-196.379-56.542-246.33-93.21-5.975-4.374-9.65-11.6-9.671-19.012v-57.384a35.347 35.347 0 016.857-20.922l15.583-21.085c8.336-11.312 20.757-14.31 33.98-14.31 4.988-56.953 16.794-97.604 45.024-127.354C255.194 87.02 326.56 81.25 356.0 81.25c29.441 0 100.807 5.77 154.557 62.722 28.19 29.75 40.036 70.401 45.025 127.354 13.263 0 25.602 2.936 33.958 14.31l15.583 21.127c4.476 6.077 6.878 13.345 6.878 20.88zm-97.666 -26.075c-.677-13.058-11.292-18.19-22.338-21.824-11.64 7.309-25.848 10.183-39.46 10.183-14.454 0-41.432-3.47-63.872-25.869-5.667-5.625-9.527-14.454-12.155-24.247a212.902 212.902 0 00-20.469-1.088c-6.098 0-13.099.349-20.551 1.088-2.628 9.793-6.509 18.622-12.155 24.247-22.4 22.4-49.418 25.87-63.872 25.87-13.612 0-27.86-2.855-39.501-10.184-11.005 3.613-21.558 8.828-22.277 21.824-1.17 24.555-1.272 49.11-1.375 73.645-.041 12.318-.082 24.658-.288 36.976.062 7.166 4.374 13.818 10.882 16.774 52.97 24.124 103.045 36.278 149.137 36.278 46.01 0 96.085-12.154 149.014-36.278 6.508-2.956 10.84-9.608 10.881-16.774.637-36.832.124-73.809-1.642-110.62h.041zM207.52100000000002 250.22c8.643 8.623 24.966 14.392 42.56 14.392 13.448 0 39.03-2.874 60.156-24.329 9.28-8.951 15.05-31.35 14.413-54.079-.657-18.231-5.769-33.28-13.448-39.665-8.315-7.371-27.203-10.574-48.33-8.644-22.399 2.238-41.267 9.588-50.875 19.833-20.798 22.728-16.323 80.317-4.476 92.492zm130.556-56.008c.637 3.51.965 7.35 1.273 11.517 0 2.875 0 5.77-.308 8.952 6.406-.636 11.847-.636 16.959-.636s10.553 0 16.959.636c-.329-3.182-.329-6.077-.329-8.952.329-4.167.657-8.007 1.294-11.517-6.735-.637-12.812-.965-17.924-.965s-11.21.328-17.924.965zm49.275-8.008c-.637 22.728 5.133 45.128 14.413 54.08 21.105 21.454 46.708 24.328 60.155 24.328 17.596 0 33.918-5.769 42.561-14.392 11.847-12.175 16.322-69.764-4.476-92.492-9.608-10.245-28.476-17.595-50.875-19.833-21.127-1.93-40.015 1.273-48.33 8.644-7.679 6.385-12.791 21.434-13.448 39.665z"/>
      
      <circle cx="356.0" cy="289.25" fill="none" r="285.25" stroke="black" stroke-width="6"/>
      
    </symbol>
    
    <symbol id="avatar-user" viewBox="0 0 44 44">
       
      <style>
    .outer { fill: #d8b7f2; }
    .inner { fill: #a277d4; }
  </style>
        
      <!-- Shifted Top horizontal -->
        
      <rect class="outer" height="7" width="17" x="13" y="7"/>
        
      <rect class="inner" height="5" width="15" x="14" y="8"/>
          
      <!-- Shifted Bottom horizontal -->
        
      <rect class="outer" height="7" width="17" x="13" y="29"/>
        
      <rect class="inner" height="5" width="15" x="14" y="30"/>
        
      <!-- Shifted Left vertical -->
        
      <rect class="outer" height="17" width="7" x="7" y="13"/>
        
      <rect class="inner" height="15" width="5" x="8" y="14"/>
         
      <!-- Shifted Right vertical -->
        
      <rect class="outer" height="17" width="7" x="29" y="13"/>
        
      <rect class="inner" height="15" width="5" x="30" y="14"/>
        
      <circle cx="22" cy="22" fill="none" r="21" stroke="#ccc" stroke-width="2"/>
      
    </symbol>
      
  </defs>
    
  <!-- starting page no 1 -->
    
  <use height="20.000000" href="#avatar-user" visibility="hidden" width="20.000000" x="10.000000" y="0.000000">
    
    <set attributeName="visibility" begin="restart.begin+2.0s" to="visible"/>
     
    <set attributeName="visibility" begin="restart.begin+12.5s" to="hidden"/>
    
  </use>
    
  <text class="name" visibility="hidden" x="35.000000" y="13.000000">
    username
    <set attributeName="visibility" begin="restart.begin+2.0s" to="visible"/>
     
    <set attributeName="visibility" begin="restart.begin+12.5s" to="hidden"/>
      
  </text>
    
  <text class="message" visibility="hidden" x="10.000000" y="38.000000">
    I have created a empty project named "files" in the previously empty eclipse workspace. can you create a file
    <set attributeName="visibility" begin="restart.begin+2.5s" to="visible"/>
     
    <set attributeName="visibility" begin="restart.begin+12.5s" to="hidden"/>
      
  </text>
    
  <text class="message" visibility="hidden" x="10.000000" y="53.000000">
    named abc.MD in the files project. This file abc.MD should contain in it details of the Tennis ball and a picture of
    <set attributeName="visibility" begin="restart.begin+2.75s" to="visible"/>
     
    <set attributeName="visibility" begin="restart.begin+12.5s" to="hidden"/>
      
  </text>
    
  <text class="message" visibility="hidden" x="10.000000" y="68.000000">
    same. This file abc.MD should be formatted in markdown format.
    <set attributeName="visibility" begin="restart.begin+3.0s" to="visible"/>
     
    <set attributeName="visibility" begin="restart.begin+12.5s" to="hidden"/>
      
  </text>
    
  <use height="20.000000" href="#avatar-pilot" visibility="hidden" width="20.000000" x="10.000000" y="88.000000">
    
    <set attributeName="visibility" begin="restart.begin+5.0s" to="visible"/>
     
    <set attributeName="visibility" begin="restart.begin+12.5s" to="hidden"/>
    
  </use>
    
  <text class="name" visibility="hidden" x="35.000000" y="101.000000">
    GitHub Copilot
    <set attributeName="visibility" begin="restart.begin+5.0s" to="visible"/>
     
    <set attributeName="visibility" begin="restart.begin+12.5s" to="hidden"/>
      
  </text>
  
  <g visibility="hidden">
    
    <set attributeName="visibility" begin="restart.begin+5.5s" to="visible"/>
    
    <set attributeName="visibility" begin="restart.begin+12.5s" to="hidden"/>
      
    <rect fill="#eee" height="30.000000" stroke="#ccc" width="660.000000" x="10.000000" y="126.000000"/>
      
    <text class="message" x="20.000000" y="146.000000">
✅ Running create_file tool  </text>
    
  </g>
    
  <text class="message" visibility="hidden" x="10.000000" y="181.000000">
    The file abc.MD has been created in your files project. It contains the details of the Tennis ball and its picture,
    <set attributeName="visibility" begin="restart.begin+6.0s" to="visible"/>
     
    <set attributeName="visibility" begin="restart.begin+12.5s" to="hidden"/>
      
  </text>
    
  <text class="message" visibility="hidden" x="10.000000" y="196.000000">
    formatted in markdown. You can open this file in your editor to view or further edit the content. If you need any
    <set attributeName="visibility" begin="restart.begin+6.25s" to="visible"/>
     
    <set attributeName="visibility" begin="restart.begin+12.5s" to="hidden"/>
      
  </text>
    
  <text class="message" visibility="hidden" x="10.000000" y="211.000000">
    more changes or want to add details for other items, let me know!
    <set attributeName="visibility" begin="restart.begin+6.5s" to="visible"/>
     
    <set attributeName="visibility" begin="restart.begin+12.5s" to="hidden"/>
      
  </text>
    
  <image height="169.199997" href="https://github.com/teq-niq/mcp-stdio-logging/blob/main/temp/svg/md-tennisball-src.png" visibility="hidden" width="429.750000" x="10.000000" y="231.000000">
    
    <set attributeName="visibility" begin="restart.begin+8.5s" to="visible"/>
     
    <set attributeName="visibility" begin="restart.begin+12.5s" to="hidden"/>
      
  </image>
    
  <image height="169.199997" href="./md-tennisball-prev.png" visibility="hidden" width="237.600006" x="445.000000" y="231.000000">
    
    <set attributeName="visibility" begin="restart.begin+8.5s" to="visible"/>
     
    <set attributeName="visibility" begin="restart.begin+12.5s" to="hidden"/>
      
  </image>
    
  <!-- ending page no 1 -->
  
  <!-- guides begin-->
  
  <rect fill="none" height="460.0" stroke="brown" width="720.0" x="0" y="0"/>
  
  <rect fill="none" height="458.0" stroke="blue" width="718.0" x="1" y="1"/>
  
  <rect fill="none" height="456.0" stroke="red" width="716.0" x="2" y="2"/>
  
  <line stroke="purple" stroke-width="1" x1="360.0" x2="360.0" y1="0" y2="460.0"/>
   
  <line stroke="purple" stroke-width="1" x1="0" x2="720.0" y1="230.0" y2="230.0"/>
  
  <!-- guides end-->
  
</svg>
